<?xml version="1.0" encoding="iso-8859-1"?>
<!-- Generator: Adobe Illustrator 19.0.0, SVG Export Plug-In . SVG Version: 6.00 Build 0)  -->
<svg version="1.1" id="Layer_1" xmlns="http://www.w3.org/2000/svg" xmlns:xlink="http://www.w3.org/1999/xlink" x="0px" y="0px"
	 viewBox="0 0 512 512" style="enable-background:new 0 0 512 512;" xml:space="preserve">
<g>
	
	
	
	<path style="fill:#2D527C;" d="M255.996,446.518c-105.052,0-190.518-85.466-190.518-190.518S150.944,65.482,255.996,65.482
		c67.966,0,131.273,36.627,165.218,95.591c4,6.948,1.61,15.825-5.338,19.826c-6.947,4.001-15.825,1.61-19.826-5.338
		c-28.778-49.988-82.443-81.041-140.054-81.041c-89.042,0-161.482,72.44-161.482,161.482s72.44,161.482,161.482,161.482
		S417.478,345.042,417.478,256c0-8.018,6.5-14.518,14.518-14.518s14.518,6.5,14.518,14.518
		C446.514,361.052,361.048,446.518,255.996,446.518z"/>
</g>
<!-- <circle style="fill:#CEE8FA;" cx="255.995" cy="255.996" r="105.981"/>
<path style="fill:#2D527C;" d="M255.996,376.499c-66.444,0-120.499-54.055-120.499-120.499s54.055-120.499,120.499-120.499
	S376.495,189.556,376.495,256S322.439,376.499,255.996,376.499z M255.996,164.537c-50.433,0-91.463,41.031-91.463,91.463
	s41.031,91.463,91.463,91.463s91.463-41.031,91.463-91.463S306.429,164.537,255.996,164.537z"/> -->
<g>
</g>
<g>
</g>
<g>
</g>
<g>
</g>
<g>
</g>
<g>
</g>
<g>
</g>
<g>
</g>
<g>
</g>
<g>
</g>
<g>
</g>
<g>
</g>
<g>
</g>
<g>
</g>
<g>
</g>
</svg>
