<?xml version="1.0" encoding="iso-8859-1"?>
<!-- Generator: Adobe Illustrator 19.0.0, SVG Export Plug-In . SVG Version: 6.00 Build 0)  -->
<svg version="1.1" id="Layer_1" xmlns="http://www.w3.org/2000/svg" xmlns:xlink="http://www.w3.org/1999/xlink" x="0px" y="0px"
	 viewBox="0 0 512 512" style="enable-background:new 0 0 512 512;" xml:space="preserve">
<circle style="fill:#E07188;" cx="255.999" cy="256" r="35.721"/>
<path style="fill:#88888F;" d="M448.117,256c2.103-2.706,4.136-5.418,6.092-8.132c33.186-46.061,41.529-88.631,23.494-119.869
	c-10.754-18.627-35.421-40.833-91.856-40.833c-10.76,0-22.071,0.837-33.788,2.45c-1.292-3.172-2.622-6.287-3.994-9.335
	C324.767,28.511,292.072,0,256.001,0s-68.766,28.511-92.062,80.28c-1.372,3.049-2.703,6.164-3.995,9.336
	c-11.719-1.613-23.029-2.45-33.79-2.45c-56.435,0-81.102,22.205-91.856,40.834c-18.035,31.238-9.692,73.808,23.494,119.868
	c1.955,2.715,3.989,5.425,6.092,8.132c-2.102,2.706-4.135,5.416-6.09,8.13c-33.186,46.061-41.529,88.631-23.494,119.869
	c10.754,18.627,35.42,40.831,91.856,40.833c0.004,0,0.002,0,0.005,0c10.759,0,22.067-0.837,33.784-2.449
	c1.292,3.173,2.623,6.288,3.995,9.337C187.234,483.489,219.93,512,256.001,512s68.766-28.511,92.062-80.28
	c1.372-3.049,2.704-6.165,3.995-9.339c11.718,1.613,23.027,2.45,33.786,2.452c0.006,0,0.006,0,0.013,0
	c56.419,0,81.089-22.204,91.843-40.831c18.035-31.239,9.692-73.809-23.494-119.87C452.253,261.416,450.219,258.706,448.117,256z
	 M385.846,122.887c30.733,0,52.368,8.159,60.921,22.972c10.511,18.207,2.206,48.655-22.643,82.651
	c-14.068-14.505-30.063-28.651-47.584-42.103c-2.889-21.892-7.139-42.808-12.663-62.237
	C371.493,123.331,378.844,122.887,385.846,122.887z M300.652,333.337c-14.705,8.49-29.69,16.141-44.651,22.87
	c-14.961-6.73-29.947-14.38-44.652-22.87c-14.811-8.552-28.941-17.668-42.213-27.194c-1.579-15.921-2.437-32.672-2.437-50.143
	c0-17.475,0.86-34.229,2.439-50.152c13.001-9.329,27.079-18.45,42.213-27.187c14.705-8.49,29.69-16.14,44.65-22.869
	c14.961,6.729,29.946,14.379,44.651,22.869c15.134,8.737,29.213,17.858,42.214,27.188c1.579,15.923,2.439,32.676,2.439,50.151
	c0,17.473-0.86,34.227-2.439,50.15C329.863,315.479,315.784,324.6,300.652,333.337z M335.499,354.05
	c-2.052,9.622-4.382,18.784-6.95,27.45c-8.887-2.148-17.982-4.728-27.213-7.723c5.743-3.049,11.472-6.212,17.176-9.505
	C324.27,360.948,329.932,357.534,335.499,354.05z M210.665,373.778c-9.231,2.995-18.327,5.576-27.213,7.723
	c-2.568-8.665-4.9-17.827-6.95-27.45c5.567,3.485,11.228,6.897,16.986,10.221C199.191,367.565,204.922,370.728,210.665,373.778z
	 M131.336,275.812c-7.23-6.515-14.032-13.135-20.366-19.818c6.238-6.581,13.031-13.205,20.367-19.817
	c-0.235,6.563-0.36,13.173-0.36,19.823C130.977,262.645,131.101,269.251,131.336,275.812z M176.502,157.947
	c2.05-9.623,4.382-18.784,6.95-27.45c8.886,2.148,17.981,4.728,27.212,7.723c-5.743,3.049-11.472,6.212-17.176,9.504
	C187.731,151.05,182.068,154.463,176.502,157.947z M301.334,138.221c9.231-2.995,18.327-5.576,27.213-7.723
	c2.57,8.666,4.9,17.828,6.95,27.452c-5.566-3.485-11.229-6.898-16.988-10.223C312.808,144.433,307.077,141.27,301.334,138.221z
	 M380.664,236.177c7.337,6.614,14.131,13.239,20.37,19.823c-6.239,6.582-13.033,13.207-20.37,19.82
	c0.235-6.563,0.36-13.173,0.36-19.82C381.024,249.35,380.899,242.742,380.664,236.177z M256.001,35.721
	c21.024,0,43.24,22.417,60.256,60.938c-19.55,4.925-39.803,11.69-60.258,20.156c-20.454-8.465-40.706-15.23-60.255-20.155
	C212.759,58.138,234.976,35.721,256.001,35.721z M86.773,226.986c-24.125-33.484-31.976-63.052-21.541-81.126
	c8.553-14.813,30.188-22.973,60.921-22.973c7.002,0,14.354,0.444,21.972,1.284c-5.525,19.427-9.774,40.343-12.663,62.235
	c-17.519,13.451-33.512,27.593-47.577,42.096C87.514,227.996,87.136,227.492,86.773,226.986z M126.155,389.11
	c-30.734-0.001-52.369-8.159-60.922-22.972c-10.511-18.206-2.206-48.654,22.643-82.65c14.067,14.505,30.063,28.651,47.585,42.104
	c2.889,21.892,7.138,42.807,12.663,62.235C140.508,388.668,133.156,389.11,126.155,389.11z M256.001,476.279
	c-21.024,0-43.241-22.418-60.256-60.94c19.549-4.924,39.803-11.69,60.258-20.155c20.455,8.463,40.708,15.229,60.258,20.154
	C299.242,453.861,277.025,476.279,256.001,476.279z M446.767,366.14c-8.554,14.813-30.181,22.971-60.909,22.971
	c-0.001,0-0.008,0-0.011,0c-7.003,0-14.353-0.444-21.971-1.284c5.525-19.427,9.774-40.343,12.663-62.235
	c17.522-13.454,33.517-27.598,47.584-42.102C448.973,317.485,457.279,347.933,446.767,366.14z"/>
<path style="fill:#E02753;" d="M256.001,220.279v71.442c19.727,0,35.721-15.993,35.721-35.721S275.728,220.279,256.001,220.279z"/>
<path style="fill:#797781;" d="M448.117,256c2.103-2.706,4.136-5.418,6.092-8.132c33.186-46.061,41.529-88.631,23.494-119.869
	c-10.754-18.627-35.421-40.833-91.856-40.833c-10.76,0-22.071,0.837-33.788,2.45c-1.292-3.172-2.622-6.287-3.994-9.335
	C324.767,28.511,292.072,0,256.001,0v35.721c21.024,0,43.24,22.417,60.256,60.938c-19.549,4.925-39.801,11.69-60.256,20.155v38.98
	c14.96,6.729,29.945,14.379,44.65,22.869c15.134,8.737,29.213,17.858,42.214,27.188c1.579,15.923,2.439,32.676,2.439,50.151
	c0,17.474-0.86,34.227-2.439,50.15c-13.001,9.329-27.08,18.45-42.213,27.187c-14.705,8.49-29.69,16.141-44.651,22.87v38.978l0,0
	c20.455,8.464,40.708,15.229,60.258,20.154c-17.016,38.521-39.233,60.94-60.258,60.94V512c36.071,0,68.766-28.511,92.062-80.28
	c1.372-3.049,2.704-6.165,3.995-9.339c11.718,1.613,23.027,2.45,33.786,2.452c0.006,0,0.006,0,0.013,0
	c56.419,0,81.089-22.204,91.843-40.831c18.035-31.239,9.692-73.809-23.494-119.87C452.253,261.416,450.219,258.706,448.117,256z
	 M318.511,147.725c-5.703-3.293-11.434-6.456-17.177-9.505c9.231-2.995,18.327-5.576,27.213-7.723
	c2.57,8.666,4.9,17.828,6.95,27.452C329.931,154.463,324.269,151.051,318.511,147.725z M328.549,381.5
	c-8.887-2.148-17.982-4.728-27.213-7.723c5.743-3.049,11.472-6.212,17.176-9.505c5.758-3.324,11.421-6.737,16.988-10.222
	C333.448,363.672,331.118,372.835,328.549,381.5z M385.846,122.887c30.733,0,52.368,8.159,60.921,22.972
	c10.511,18.207,2.206,48.655-22.643,82.651c-14.068-14.505-30.063-28.651-47.584-42.103c-2.889-21.892-7.139-42.808-12.663-62.237
	C371.493,123.331,378.844,122.887,385.846,122.887z M380.664,236.177c7.337,6.614,14.131,13.239,20.37,19.823
	c-6.239,6.582-13.033,13.207-20.37,19.82c0.235-6.563,0.36-13.173,0.36-19.82C381.024,249.35,380.899,242.742,380.664,236.177z
	 M446.767,366.14c-8.554,14.813-30.181,22.971-60.909,22.971c-0.001,0-0.008,0-0.011,0c-7.003,0-14.353-0.444-21.971-1.284
	c5.525-19.427,9.774-40.343,12.663-62.235c17.522-13.454,33.517-27.598,47.584-42.102
	C448.973,317.485,457.279,347.933,446.767,366.14z"/>
<g>
</g>
<g>
</g>
<g>
</g>
<g>
</g>
<g>
</g>
<g>
</g>
<g>
</g>
<g>
</g>
<g>
</g>
<g>
</g>
<g>
</g>
<g>
</g>
<g>
</g>
<g>
</g>
<g>
</g>
</svg>
