<?xml version="1.0" encoding="iso-8859-1"?>
<!-- Generator: Adobe Illustrator 18.0.0, SVG Export Plug-In . SVG Version: 6.00 Build 0)  -->
<!DOCTYPE svg PUBLIC "-//W3C//DTD SVG 1.1//EN" "http://www.w3.org/Graphics/SVG/1.1/DTD/svg11.dtd">
<svg version="1.1" id="Capa_1" xmlns="http://www.w3.org/2000/svg" xmlns:xlink="http://www.w3.org/1999/xlink" x="0px" y="0px"
	 viewBox="0 0 135.528 135.528" style="enable-background:new 0 0 135.528 135.528;" xml:space="preserve">
<g>
	<linearGradient id="SVGID_1_" gradientUnits="userSpaceOnUse" x1="20.5321" y1="20.5316" x2="113.9435" y2="113.943">
		<stop  offset="0" style="stop-color:#6EC7DB"/>
		<stop  offset="1" style="stop-color:#30AFCC"/>
	</linearGradient>
	<circle style="fill:url(#SVGID_1_);" cx="67.764" cy="67.764" r="67.764"/>
	<g>
		<g>
			<circle style="fill:#FFF99A;" cx="67.764" cy="67.764" r="32.624"/>
			<path style="fill:#FFD800;" d="M117.047,67.764c0-3.402-8.175-5.648-8.727-8.343c-0.551-2.695,6.101-7.893,4.854-10.84
				c-1.247-2.949-9.594-1.76-11.083-3.963c-1.488-2.202,2.75-9.473,0.521-11.703c-2.23-2.229-9.5,2.008-11.703,0.521
				c-2.203-1.488-1.015-9.836-3.963-11.082c-2.948-1.246-8.145,5.405-10.84,4.854c-2.695-0.552-4.941-8.726-8.343-8.726
				s-5.648,8.174-8.343,8.726c-2.695,0.551-7.892-6.1-10.841-4.854c-2.948,1.247-1.76,9.595-3.962,11.082
				c-2.202,1.487-9.473-2.75-11.702-0.521c-2.23,2.23,2.008,9.501,0.521,11.703c-1.488,2.203-9.835,1.014-11.082,3.963
				c-1.247,2.948,5.405,8.145,4.854,10.84c-0.552,2.694-8.727,4.94-8.727,8.343c0,3.402,8.175,5.647,8.727,8.344
				c0.551,2.694-6.101,7.892-4.854,10.84c1.247,2.948,9.594,1.76,11.082,3.962c1.488,2.203-2.75,9.474-0.521,11.703
				c2.229,2.229,9.5-2.009,11.702-0.521c2.203,1.488,1.015,9.836,3.962,11.083c2.948,1.247,8.146-5.405,10.841-4.854
				c2.695,0.552,4.941,8.726,8.343,8.726s5.648-8.175,8.343-8.726c2.695-0.552,7.892,6.101,10.84,4.854
				c2.948-1.247,1.76-9.595,3.963-11.083c2.203-1.487,9.473,2.751,11.703,0.521c2.229-2.229-2.009-9.5-0.521-11.703
				c1.488-2.202,9.836-1.014,11.083-3.962c1.247-2.948-5.405-8.146-4.854-10.84C108.872,73.411,117.047,71.166,117.047,67.764z
				 M67.764,104.758c-20.431,0-36.994-16.563-36.994-36.994c0-20.432,16.563-36.994,36.994-36.994
				c20.431,0,36.994,16.562,36.994,36.994C104.758,88.195,88.195,104.758,67.764,104.758z"/>
		</g>
	</g>
</g>
<g>
</g>
<g>
</g>
<g>
</g>
<g>
</g>
<g>
</g>
<g>
</g>
<g>
</g>
<g>
</g>
<g>
</g>
<g>
</g>
<g>
</g>
<g>
</g>
<g>
</g>
<g>
</g>
<g>
</g>
</svg>
