<?xml version="1.0" encoding="iso-8859-1"?>
<!-- Generator: Adobe Illustrator 19.0.0, SVG Export Plug-In . SVG Version: 6.00 Build 0)  -->
<svg version="1.1" id="Capa_1" xmlns="http://www.w3.org/2000/svg" xmlns:xlink="http://www.w3.org/1999/xlink" x="0px" y="0px"
	 viewBox="0 0 489.807 489.807" style="enable-background:new 0 0 489.807 489.807;" xml:space="preserve">
<g>
	<g>
		<g>
			<path d="M480.7,235.703H316.3c-4.2-32.3-29.7-57.8-62-62V9.303c0-5.1-4.3-9.3-9.3-9.3s-9.3,4.3-9.3,9.3v164.3
				c-32.3,4.2-57.8,29.7-62,62H9.3c-5.1,0-9.3,4.3-9.3,9.3c0,5,4.3,9.3,9.3,9.3h164.3c4.2,32.3,29.7,57.8,62,62v164.3
				c0,5.1,4.3,9.3,9.3,9.3c5,0,9.3-4.3,9.3-9.7v-164c32.3-4.2,57.8-29.7,62-62h164.3c5.1,0,9.3-4.3,9.3-9.3
				C490,239.903,485.7,235.703,480.7,235.703z"/>
			<path d="M216.6,158.703v-103.9c-83.6,12.5-149.3,78.6-161.8,161.8h103.8C167.6,189.403,189.4,167.603,216.6,158.703z"/>
			<path d="M331.3,216.603h103.8c-12.4-83.6-78.1-149.3-161.7-161.8v103.8C300.6,167.603,322.4,189.403,331.3,216.603z"/>
			<path d="M273.4,330.903v103.8c83.2-12.4,149.3-78.2,161.8-161.8H331.3C322,300.603,300.6,322.003,273.4,330.903z"/>
			<path d="M158.7,273.403H54.8c12.4,83.2,78.2,149.3,161.8,161.8v-104.3C189.4,322.003,168,300.603,158.7,273.403z"/>
		</g>
	</g>
</g>
<g>
</g>
<g>
</g>
<g>
</g>
<g>
</g>
<g>
</g>
<g>
</g>
<g>
</g>
<g>
</g>
<g>
</g>
<g>
</g>
<g>
</g>
<g>
</g>
<g>
</g>
<g>
</g>
<g>
</g>
</svg>
