<?xml version="1.0" encoding="iso-8859-1"?>
<!-- Generator: Adobe Illustrator 17.1.0, SVG Export Plug-In . SVG Version: 6.00 Build 0)  -->
<!DOCTYPE svg PUBLIC "-//W3C//DTD SVG 1.1//EN" "http://www.w3.org/Graphics/SVG/1.1/DTD/svg11.dtd">
<svg version="1.1" id="Capa_1" xmlns="http://www.w3.org/2000/svg" xmlns:xlink="http://www.w3.org/1999/xlink" x="0px" y="0px"
	 viewBox="0 0 294 294" style="enable-background:new 0 0 294 294;" xml:space="preserve">
<path d="M243.346,162c-6.504,41.941-40.179,75.13-82.179,81.421V180c0-8.284-6.716-15-15-15s-15,6.716-15,15v63.263
	c-41-6.664-74.061-39.655-80.513-81.263H113.5c8.284,0,15-6.716,15-15s-6.716-15-15-15H50.654
	c6.452-41.608,39.513-74.599,80.513-81.263V113c0,8.284,6.716,15,15,15s15-6.716,15-15V50.579c42,6.291,75.675,39.479,82.179,81.421
	H180.5c-8.284,0-15,6.716-15,15s6.716,15,15,15H243.346z M74.606,53.894c0.237,0.237,0.449,0.489,0.667,0.737
	C95.096,39.203,119.993,30,147,30c26.741,0,51.41,9.024,71.136,24.178c0.089-0.093,0.166-0.193,0.257-0.284l21.075-21.075
	C214.194,12.31,182.01,0,147,0c-35.265,0-67.665,12.486-93.023,33.264L74.606,53.894z M260.736,53.977l-21.129,21.129
	c-0.069,0.069-0.145,0.127-0.216,0.195C254.806,95.12,264,120.005,264,147s-9.194,51.88-24.609,71.699
	c0.07,0.068,0.146,0.125,0.216,0.195l21.129,21.129C281.514,214.665,294,182.264,294,147S281.514,79.335,260.736,53.977z
	 M53.394,218.894c0.259-0.259,0.533-0.492,0.806-0.729C39.033,198.434,30,173.753,30,147s9.033-51.434,24.2-71.165
	c-0.273-0.236-0.547-0.47-0.806-0.729L32.818,54.531C12.31,79.806,0,111.99,0,147s12.31,67.194,32.818,92.469L53.394,218.894z
	 M218.394,240.106c-0.092-0.091-0.169-0.191-0.257-0.284C198.41,254.976,173.741,264,147,264c-27.007,0-51.904-9.203-71.727-24.631
	c-0.218,0.248-0.43,0.5-0.667,0.737l-20.629,20.629C79.335,281.514,111.735,294,147,294c35.01,0,67.194-12.31,92.469-32.818
	L218.394,240.106z"/>
<g>
</g>
<g>
</g>
<g>
</g>
<g>
</g>
<g>
</g>
<g>
</g>
<g>
</g>
<g>
</g>
<g>
</g>
<g>
</g>
<g>
</g>
<g>
</g>
<g>
</g>
<g>
</g>
<g>
</g>
</svg>
