<?xml version="1.0" encoding="iso-8859-1"?>
<!-- Generator: Adobe Illustrator 19.0.0, SVG Export Plug-In . SVG Version: 6.00 Build 0)  -->
<svg version="1.1" id="Layer_1" xmlns="http://www.w3.org/2000/svg" xmlns:xlink="http://www.w3.org/1999/xlink" x="0px" y="0px"
	 viewBox="0 0 392.663 392.663" style="enable-background:new 0 0 392.663 392.663;" xml:space="preserve">
<path style="fill:#FFC10D;" d="M196.284,168.469c-15.386,0-27.798,12.541-27.798,27.798c0,15.386,12.541,27.798,27.798,27.798
	c15.321,0,27.798-12.541,27.798-27.798C224.082,180.881,211.67,168.469,196.284,168.469z"/>
<g>
	<path style="fill:#46abd4;" d="M362.555,91.927c-16.097-25.6-49.131-36.461-90.117-33.358C253.302,22.238,226.474,0,196.219,0
		s-57.018,22.238-76.218,58.634c-40.986-3.103-74.085,7.822-90.117,33.358c-17.196,27.669-10.408,65.875,14.61,104.339
		c-25.018,38.465-31.806,76.671-14.481,104.339c16.097,25.6,49.131,36.461,90.117,33.358c19.071,36.331,45.964,58.634,76.218,58.634
		s57.018-22.238,76.218-58.634c40.986,3.103,74.085-7.822,90.117-33.358c17.325-27.669,10.537-65.81-14.545-104.339
		C373.092,157.802,379.88,119.596,362.555,91.927z M344.131,103.564c11.572,18.489,6.788,45.188-9.956,73.568
		c-10.214-12.671-22.303-25.212-36.137-37.172c-3.426-21.915-8.792-42.214-15.774-60.057
		C310.967,79.127,333.529,86.756,344.131,103.564z M241.019,267.507c-14.739,9.244-29.802,17.131-44.735,23.661
		c-14.933-6.465-29.931-14.352-44.735-23.661c-13.123-8.21-25.277-17.067-36.461-26.376c-1.939-14.352-2.909-29.414-2.909-44.865
		s1.099-30.513,2.909-44.865c11.184-9.244,23.337-18.166,36.461-26.376c14.739-9.244,29.802-17.131,44.735-23.661
		c14.933,6.465,29.931,14.352,44.735,23.661c13.123,8.21,25.277,17.067,36.461,26.376c1.939,14.352,2.909,29.414,2.909,44.865
		s-1.099,30.513-2.909,44.865C266.296,250.44,254.078,259.297,241.019,267.507z M271.403,273.39
		c-3.232,13.317-7.37,25.729-12.024,36.848c-11.055-1.745-22.626-4.59-34.586-8.404c9.244-4.784,18.554-10.02,27.798-15.838
		C259.12,281.988,265.391,277.721,271.403,273.39z M167.84,301.899c-11.96,3.814-23.596,6.659-34.586,8.404
		c-4.719-11.184-8.792-23.596-12.024-36.848c6.012,4.331,12.347,8.598,18.877,12.606
		C149.221,291.879,158.595,297.115,167.84,301.899z M91.04,218.893c-7.24-7.499-13.834-15.063-19.653-22.626
		c5.818-7.564,12.347-15.127,19.653-22.626c-0.453,7.434-0.711,14.998-0.711,22.626C90.329,203.895,90.587,211.459,91.04,218.893z
		 M121.165,119.143c3.232-13.317,7.37-25.729,12.024-36.848c11.055,1.745,22.626,4.59,34.65,8.404
		c-9.244,4.784-18.554,10.02-27.798,15.838C133.448,110.545,127.177,114.812,121.165,119.143z M224.729,90.634
		c11.96-3.814,23.596-6.659,34.586-8.404c4.719,11.184,8.792,23.596,12.024,36.848c-6.012-4.331-12.347-8.598-18.877-12.606
		C243.347,100.655,233.973,95.418,224.729,90.634z M301.529,173.64c7.24,7.499,13.834,15.063,19.653,22.626
		c-5.818,7.564-12.348,15.127-19.653,22.626c0.453-7.434,0.711-14.998,0.711-22.626C302.24,188.638,301.981,181.075,301.529,173.64z
		 M196.284,21.786c19.846,0,38.335,15.063,52.881,39.952c-16.937,3.168-34.715,8.469-52.881,15.838
		c-18.166-7.37-36.008-12.671-52.881-15.838C157.949,36.913,176.438,21.786,196.284,21.786z M48.438,103.564
		c10.537-16.743,33.164-24.436,61.867-23.596c-6.917,17.842-12.283,38.077-15.709,60.057c-13.834,11.96-25.859,24.501-36.137,37.172
		C41.65,148.752,36.931,121.988,48.438,103.564z M48.438,288.97c-11.572-18.489-6.788-45.188,9.956-73.568
		c10.214,12.671,22.303,25.212,36.137,37.172c3.426,21.915,8.792,42.214,15.774,60.057C81.601,313.406,59.04,305.778,48.438,288.97z
		 M196.284,370.747c-19.846,0-38.335-15.063-52.881-39.952c16.937-3.168,34.715-8.469,52.881-15.838
		c18.166,7.37,36.008,12.671,52.881,15.838C234.619,355.62,216.131,370.747,196.284,370.747z M344.131,288.97
		c-10.537,16.743-33.164,24.436-61.867,23.596c7.046-17.842,12.347-38.077,15.774-60.057c13.834-11.96,25.859-24.501,36.137-37.172
		C350.918,243.782,355.638,270.545,344.131,288.97z"/>
	<path style="fill:#194F82;" d="M196.284,146.554c-27.345,0-49.713,22.238-49.713,49.713c0,27.345,22.238,49.584,49.713,49.584
		s49.713-22.238,49.713-49.584S223.63,146.554,196.284,146.554z M196.284,224.065c-15.386,0-27.798-12.541-27.798-27.798
		c0-15.386,12.541-27.798,27.798-27.798c15.321,0,27.798,12.541,27.798,27.798C224.082,211.653,211.67,224.065,196.284,224.065z"/>
</g>
<g>
</g>
<g>
</g>
<g>
</g>
<g>
</g>
<g>
</g>
<g>
</g>
<g>
</g>
<g>
</g>
<g>
</g>
<g>
</g>
<g>
</g>
<g>
</g>
<g>
</g>
<g>
</g>
<g>
</g>
</svg>
